<?xml version="1.0" encoding="UTF-8" standalone="no"?>
<svg width="122px" height="122px" viewBox="0 0 122 122" version="1.1" xmlns="http://www.w3.org/2000/svg" xmlns:xlink="http://www.w3.org/1999/xlink">
    <!-- Generator: Sketch 40.3 (33839) - http://www.bohemiancoding.com/sketch -->
    <title>website</title>
    <desc>Created with Sketch.</desc>
    <defs></defs>
    <g id="Page-1" stroke="none" stroke-width="1" fill="none" fill-rule="evenodd">
        <g id="website">
            <g id="Group" transform="translate(28.000000, 21.000000)">
                <path d="M7.40012168,0.679499353 C3.30836774,0.679499353 0,3.99947598 0,8.09487469 L0,72.086049 C0,76.1899355 3.31314733,79.5014243 7.40012168,79.5014243 L60.2431808,79.5014243 C64.3349348,79.5014243 67.6433025,76.1814477 67.6433025,72.086049 L67.6433025,24.3076619 C67.6433025,23.2045136 67.0076502,21.6745828 66.2240495,20.8909822 L47.4318197,2.09875234 C46.647988,1.31492056 45.1149527,0.679499353 44.0179022,0.679499353 L7.40012168,0.679499353 Z" id="Rectangle-4" stroke="#FFFFFF" stroke-width="4.58823529" stroke-linecap="round" stroke-linejoin="round"></path>
                <polyline id="Path-6" stroke="#FFFFFF" stroke-width="4" stroke-linecap="round" stroke-linejoin="round" points="30.4394861 38.7224086 16.2545209 49.4093587 30.439486 60.4663879"></polyline>
                <polyline id="Path-11" fill="#30D0DF" points="59.7348537 34.015288 78.4568676 48.3970216 78.4568676 50.609596 58.6335588 66.0976167"></polyline>
                <polyline id="Path-6-Copy" stroke="#FFFFFF" stroke-width="4" stroke-linecap="round" stroke-linejoin="round" transform="translate(61.432602, 49.594398) scale(-1, 1) translate(-61.432602, -49.594398) " points="68.5250849 38.7224086 54.3401197 49.4093587 68.5250848 60.4663879"></polyline>
                <path d="M48.0267448,36.4574107 L37.2038164,63.6373849" id="Line" stroke="#FFFFFF" stroke-width="4" stroke-linecap="round" stroke-linejoin="round"></path>
                <path d="M43.5607477,2.99529361 L43.5607477,23.4955697" id="Line" stroke="#FFFFFF" stroke-width="4.58823529" stroke-linecap="round" stroke-linejoin="round"></path>
                <path d="M44.2487851,23.581221 L67.007423,23.581221" id="Line" stroke="#FFFFFF" stroke-width="4.58823529" stroke-linecap="round" stroke-linejoin="round"></path>
            </g>
        </g>
    </g>
</svg>